<?xml version="1.0" standalone="no"?>
<!DOCTYPE svg PUBLIC "-//W3C//DTD SVG 20010904//EN"
 "http://www.w3.org/TR/2001/REC-SVG-20010904/DTD/svg10.dtd">
<svg version="1.0" xmlns="http://www.w3.org/2000/svg"
 width="266.000000pt" height="251.000000pt" viewBox="0 0 266.000000 251.000000"
 preserveAspectRatio="xMidYMid meet">
<metadata>
Created by potrace 1.16, written by Peter Selinger 2001-2019
</metadata>
<g transform="translate(0.000000,251.000000) scale(0.100000,-0.100000)"
fill="#000000" stroke="none">
<path d="M1278 2293 c-14 -21 -126 -198 -250 -393 -124 -195 -352 -554 -507
-798 -154 -244 -281 -445 -281 -448 0 -2 47 -4 105 -4 58 0 105 -2 105 -5 0
-3 -47 -80 -105 -171 -58 -90 -105 -167 -105 -169 0 -3 479 -5 1065 -5 586 0
1065 2 1065 4 0 2 -47 79 -105 170 -58 91 -105 168 -105 171 0 3 47 5 105 5
58 0 105 2 105 4 0 3 -64 105 -142 228 -77 123 -258 408 -401 633 -143 226
-274 433 -292 460 -17 28 -72 113 -120 190 -49 77 -93 146 -100 153 -9 10 -17
5 -37 -25z m76 -49 c47 -76 141 -225 649 -1026 191 -300 347 -549 347 -552 0
-4 -46 -5 -102 -4 l-103 3 -175 276 c-96 151 -283 445 -414 653 -132 207 -243
379 -247 382 -4 2 -110 -157 -234 -353 -125 -197 -313 -494 -419 -660 l-191
-302 -103 -1 c-57 0 -102 4 -100 9 7 18 1043 1649 1046 1646 2 -2 22 -34 46
-71z m0 -350 c47 -76 141 -225 649 -1026 191 -300 347 -549 347 -552 0 -3
-471 -6 -1046 -6 -597 0 -1044 4 -1042 9 7 18 1043 1649 1046 1646 2 -2 22
-34 46 -71z"/>
</g>
</svg>
